<svg width="437" height="433" xmlns="http://www.w3.org/2000/svg" xmlns:xlink="http://www.w3.org/1999/xlink" overflow="hidden"><g transform="translate(-813 -140)"><path d="M813 355.154 813.191 349.95 814.036 346.507C814.894 343.842 815.793 343.308 817.1 341.692 817.972 340.615 820.532 339.692 822.412 338.922L824.315 337.94 826.043 337.951C828.001 338.002 829.999 338.002 831.765 337.197 835.296 335.587 839.493 332.233 841.759 328.745 842.891 327.001 844.907 325.408 846.081 323.488L846.426 322.286 847 322 847 391 846.789 390.895 846.081 388.429C844.907 386.509 842.891 384.916 841.759 383.172 839.493 379.684 835.296 376.331 831.765 374.721 829.999 373.916 828.001 373.916 826.043 373.966L824.449 373.977 824.424 373.816C823.515 372.893 818.408 371.624 817.1 370.008 815.793 368.392 814.894 367.858 814.036 365.193L813.196 361.771 813.082 358.556Z" fill="#2BD3D3" fill-rule="evenodd"/><path d="M842.903 246.905 845.654 242.522 848.098 239.981C850.166 238.116 851.21 238.106 853.146 237.37 854.437 236.879 857.114 237.365 859.125 237.643L861.263 237.749 862.755 238.624C864.426 239.647 866.158 240.647 868.088 240.837 871.948 241.218 877.252 240.431 880.948 238.562 882.796 237.628 885.335 237.265 887.306 236.2L888.203 235.338 888.843 235.379 854.553 294.771 854.422 294.575 855.034 292.098C854.97 289.858 854.015 287.478 853.9 285.411 853.671 281.275 851.7 276.288 849.44 273.136 848.31 271.56 846.578 270.56 844.857 269.624L843.47 268.835 843.528 268.684C843.199 267.435 839.405 263.787 839.075 261.742 838.745 259.698 838.231 258.788 838.812 256.065L839.785 252.699 841.284 249.875Z" fill="#2BD3D3" fill-rule="evenodd"/><path d="M922.694 168.094 927.268 165.673 930.655 164.695C933.379 164.114 934.288 164.627 936.333 164.957 937.696 165.177 939.772 166.937 941.374 168.183L943.172 169.344 944.027 170.848C944.963 172.569 945.963 174.301 947.539 175.431 950.691 177.691 955.678 179.662 959.813 179.891 961.881 180.006 964.261 180.961 966.501 181.025L967.709 180.726 968.242 181.081 908.85 215.371 908.835 215.136 910.603 213.297C911.668 211.326 912.031 208.787 912.965 206.939 914.834 203.243 915.621 197.939 915.24 194.079 915.049 192.149 914.049 190.417 913.027 188.746L912.22 187.369 912.346 187.268C912.686 186.021 911.223 180.965 911.96 179.029 912.696 177.093 912.706 176.049 914.571 173.981L917.097 171.552 919.807 169.856Z" fill="#2BD3D3" fill-rule="evenodd"/><path d="M1022 141 1022 174 996 174 996.102 173.79 998.497 173.086C1000.36 171.919 1001.91 169.916 1003.6 168.79 1006.99 166.538 1010.25 162.366 1011.81 158.856 1012.6 157.101 1012.6 155.114 1012.55 153.169L1012.54 151.584 1012.69 151.559C1013.59 150.655 1014.82 145.579 1016.39 144.28 1017.96 142.98 1018.48 142.087 1021.07 141.234Z" fill="#2BD3D3" fill-rule="evenodd"/><path d="M996 539 1022 539 1022 573 1019.81 572.438C1017.22 571.567 1016.7 570.656 1015.13 569.329 1014.08 568.445 1013.19 565.848 1012.44 563.942L1011.48 562.012 1011.5 560.258C1011.54 558.273 1011.54 556.245 1010.76 554.454 1009.2 550.872 1005.94 546.615 1002.55 544.317 1000.86 543.168 999.311 541.124 997.446 539.932L996.278 539.582Z" fill="#2BD3D3" fill-rule="evenodd"/><path d="M920.377 543.351 915.993 540.599 913.452 538.155C911.587 536.088 911.577 535.043 910.841 533.107 910.35 531.817 910.836 529.139 911.114 527.128L911.221 524.991 912.095 523.499C913.118 521.828 914.118 520.096 914.308 518.166 914.689 514.306 913.903 509.002 912.034 505.306 911.099 503.457 910.736 500.919 909.671 498.947L908.809 498.051 908.85 497.411 968.242 531.701 968.046 531.832 965.569 531.22C963.329 531.284 960.95 532.238 958.882 532.353 954.746 532.583 949.76 534.554 946.607 536.814 945.031 537.943 944.031 539.676 943.095 541.397L942.307 542.784 942.156 542.725C940.906 543.054 937.258 546.849 935.214 547.179 933.169 547.509 932.26 548.023 929.536 547.442L926.17 546.469 923.346 544.97Z" fill="#2BD3D3" fill-rule="evenodd"/><path d="M841.565 463.56 839.145 458.985 838.166 455.598C837.585 452.875 838.099 451.966 838.429 449.921 838.649 448.558 840.408 446.482 841.655 444.88L842.816 443.082 844.319 442.227C846.04 441.291 847.772 440.291 848.902 438.715 851.162 435.563 853.133 430.576 853.363 426.44 853.477 424.373 854.432 421.993 854.496 419.753L854.198 418.545 854.553 418.012 888.843 477.404 888.608 477.419 886.768 475.651C884.797 474.586 882.259 474.223 880.41 473.289 876.714 471.42 871.41 470.633 867.55 471.014 865.62 471.204 863.888 472.204 862.217 473.227L860.841 474.034 860.739 473.908C859.493 473.568 854.436 475.031 852.5 474.294 850.564 473.557 849.52 473.548 847.452 471.683L845.023 469.157 843.327 466.447Z" fill="#2BD3D3" fill-rule="evenodd"/><path d="M1022 171 1022 542 1010.69 541.428C917.061 531.909 844 452.747 844 356.5 844 260.253 917.061 181.091 1010.69 171.572Z" fill="#2BD3D3" fill-rule="evenodd"/><path d="M1022 213 1022 500 1015 499.646C942.543 492.278 886 431.001 886 356.5 886 281.999 942.543 220.722 1015 213.354Z" fill="#F2F2F2" fill-rule="evenodd"/><path d="M35.846 0 41.0497 0.190851 44.4932 1.0362C47.1584 1.89413 47.6922 2.79299 49.3078 4.10041 50.3849 4.97199 51.3083 7.53226 52.0777 9.4116L53.0599 11.3146 53.0485 13.0433C52.9982 15.0005 52.9982 16.9993 53.8031 18.7648 55.4129 22.2959 58.7667 26.4932 62.2546 28.7585 63.9985 29.8911 65.5915 31.9065 67.5116 33.0808L68.7139 33.4262 69 34 0 34 0.105207 33.7891 2.57061 33.0808C4.49064 31.9065 6.08365 29.8911 7.8276 28.7585 11.3155 26.4932 14.6692 22.2959 16.279 18.7648 17.084 16.9993 17.084 15.0005 17.0337 13.0433L17.0232 11.4489 17.1838 11.4238C18.107 10.5147 19.3764 5.40772 20.9921 4.10041 22.6079 2.79299 23.1416 1.89413 25.8069 1.0362L29.2293 0.195992 32.4439 0.0822579Z" fill="#DE6DE1" fill-rule="evenodd" transform="matrix(-6.12323e-17 -1 -1 6.12323e-17 1249 391)"/><path d="M35.6278 0 40.7998 0.190971 44.2224 1.03685C46.8713 1.89533 47.4019 2.79475 49.0077 4.10299 50.0782 4.97512 50.9959 7.53701 51.7606 9.41753L52.7369 11.3217 52.7256 13.0515C52.6756 15.01 52.6756 17.01 53.4756 18.7766 55.0756 22.3099 58.4089 26.5099 61.8756 28.7766 63.6089 29.9099 65.1922 31.9266 67.1006 33.1016L68.2955 33.4472 68.5799 34.0214 0 34.0214 0.104567 33.8104 2.55496 33.1016C4.46331 31.9266 6.04661 29.9099 7.77995 28.7766 11.2466 26.5099 14.5799 22.3099 16.1799 18.7766 16.9799 17.01 16.9799 15.01 16.93 13.0515L16.9196 11.4561 17.0792 11.431C17.9967 10.5214 19.2585 5.41113 20.8644 4.10299 22.4702 2.79475 23.0007 1.89533 25.6498 1.03685L29.0513 0.196115 32.2464 0.0823097Z" fill="#DE6DE1" fill-rule="evenodd" transform="matrix(-0.5 -0.866025 -0.866025 0.5 1237.14 277.76)"/><path d="M35.6278 0 40.7998 0.190971 44.2224 1.03685C46.8713 1.89533 47.4019 2.79475 49.0077 4.10299 50.0782 4.97512 50.9959 7.53701 51.7606 9.41753L52.7369 11.3217 52.7256 13.0515C52.6756 15.01 52.6756 17.01 53.4756 18.7766 55.0756 22.3099 58.4089 26.5099 61.8756 28.7766 63.6089 29.9099 65.1922 31.9266 67.1006 33.1016L68.2955 33.4472 68.5799 34.0214 0 34.0214 0.104567 33.8104 2.55496 33.1016C4.46331 31.9266 6.04661 29.9099 7.77995 28.7766 11.2466 26.5099 14.5799 22.3099 16.1799 18.7766 16.9799 17.01 16.9799 15.01 16.93 13.0515L16.9196 11.4561 17.0792 11.431C17.9967 10.5214 19.2585 5.41113 20.8644 4.10299 22.4702 2.79475 23.0007 1.89533 25.6498 1.03685L29.0513 0.196115 32.2464 0.0823097Z" fill="#DE6DE1" fill-rule="evenodd" transform="matrix(-0.866025 -0.5 -0.5 0.866025 1170.39 185.908)"/><path d="M27 0 27 33 0 33 0.106133 32.7904 2.59322 32.0863C4.53014 30.9191 6.13715 28.9157 7.89644 27.7899 11.415 25.5382 14.7983 21.366 16.4222 17.8561 17.2342 16.1011 17.2342 14.1144 17.1835 12.1689L17.1729 10.584 17.3349 10.5591C18.2662 9.65547 19.5468 4.57905 21.1768 3.27957 22.8067 1.97999 23.3451 1.08651 26.0338 0.233719Z" fill="#DE6DE1" fill-rule="evenodd" transform="matrix(-1 0 0 1 1067 141)"/><path d="M27 34 0 34 0 0 2.2777 0.562266C4.96628 1.43254 5.50483 2.34432 7.13465 3.67053 8.22123 4.55464 9.15266 7.15173 9.92884 9.05809L10.9197 10.9884 10.9082 12.742C10.8575 14.7274 10.8575 16.7548 11.6695 18.5457 13.2934 22.1276 16.6767 26.3853 20.1953 28.6831 21.9545 29.832 23.5616 31.8764 25.4985 33.0676L26.7113 33.4179Z" fill="#DE6DE1" fill-rule="evenodd" transform="matrix(1 -1.22465e-16 -1.22465e-16 -1 1040 573)"/><path d="M35.6278 0 40.7998 0.190971 44.2224 1.03685C46.8713 1.89533 47.4019 2.79475 49.0077 4.10299 50.0782 4.97512 50.9959 7.53701 51.7606 9.41753L52.7369 11.3217 52.7256 13.0515C52.6756 15.01 52.6756 17.01 53.4756 18.7766 55.0756 22.3099 58.4089 26.5099 61.8756 28.7766 63.6089 29.9099 65.1922 31.9266 67.1006 33.1016L68.2955 33.4472 68.5799 34.0214 0 34.0214 0.104567 33.8104 2.55496 33.1016C4.46331 31.9266 6.04661 29.9099 7.77995 28.7766 11.2466 26.5099 14.5799 22.3099 16.1799 18.7766 16.9799 17.01 16.9799 15.01 16.93 13.0515L16.9196 11.4561 17.0792 11.431C17.9967 10.5214 19.2585 5.41113 20.8644 4.10299 22.4702 2.79475 23.0007 1.89533 25.6498 1.03685L29.0513 0.196115 32.2464 0.0823097Z" fill="#DE6DE1" fill-rule="evenodd" transform="matrix(0.866025 -0.5 -0.5 -0.866025 1111 561.165)"/><path d="M35.6278 0 40.7998 0.190971 44.2224 1.03685C46.8713 1.89533 47.4019 2.79475 49.0077 4.10299 50.0782 4.97512 50.9959 7.53701 51.7606 9.41753L52.7369 11.3217 52.7256 13.0515C52.6756 15.01 52.6756 17.01 53.4756 18.7766 55.0756 22.3099 58.4089 26.5099 61.8756 28.7766 63.6089 29.9099 65.1922 31.9266 67.1006 33.1016L68.2955 33.4472 68.5799 34.0214 0 34.0214 0.104567 33.8104 2.55496 33.1016C4.46331 31.9266 6.04661 29.9099 7.77995 28.7766 11.2466 26.5099 14.5799 22.3099 16.1799 18.7766 16.9799 17.01 16.9799 15.01 16.93 13.0515L16.9196 11.4561 17.0792 11.431C17.9967 10.5214 19.2585 5.41113 20.8644 4.10299 22.4702 2.79475 23.0007 1.89533 25.6498 1.03685L29.0513 0.196115 32.2464 0.0823097Z" fill="#DE6DE1" fill-rule="evenodd" transform="matrix(0.5 -0.866025 -0.866025 -0.5 1202.85 494.414)"/><path d="M179 0 179 371 167.622 370.428C73.4711 360.909 0 281.747 0 185.5 0 89.2535 73.4711 10.0913 167.622 0.572027Z" fill="#DE6DE1" fill-rule="evenodd" transform="matrix(-1 0 0 1 1219 171)"/><path d="M136 0 136 287 129 286.646C56.5428 279.278 0 218.001 0 143.5 0 68.9991 56.5428 7.72246 129 0.353937Z" fill="#F2F2F2" fill-rule="evenodd" transform="matrix(-1 0 0 1 1176 213)"/><path d="M1036.89 236.711C1107.16 243.932 1157.91 303.416 1150.24 369.574 1143.74 425.714 1096.69 470.068 1037.06 476.271Z" fill="#2BD3D3" fill-rule="evenodd"/><path d="M1081 305C1081 297.82 1087.04 292 1094.5 292 1101.96 292 1108 297.82 1108 305 1108 312.18 1101.96 318 1094.5 318 1087.04 318 1081 312.18 1081 305Z" fill="#F2F2F2" fill-rule="evenodd"/><rect x="1037" y="299" width="58" height="12" fill="#F2F2F2"/><path d="M1104 356.5C1104 349.044 1109.82 343 1117 343 1124.18 343 1130 349.044 1130 356.5 1130 363.956 1124.18 370 1117 370 1109.82 370 1104 363.956 1104 356.5Z" fill="#F2F2F2" fill-rule="evenodd"/><rect x="1037" y="351" width="70" height="11" fill="#F2F2F2"/><path d="M1081 408C1081 400.82 1087.04 395 1094.5 395 1101.96 395 1108 400.82 1108 408 1108 415.18 1101.96 421 1094.5 421 1087.04 421 1081 415.18 1081 408Z" fill="#F2F2F2" fill-rule="evenodd"/><rect x="1037" y="402" width="58" height="12" fill="#F2F2F2"/><path d="M141.887 0.711392C212.163 7.93174 262.914 67.4163 255.245 133.574 248.736 189.714 201.685 234.068 142.06 240.271Z" fill="#DE6DE1" fill-rule="evenodd" transform="matrix(-1 0 0 1 1167 236)"/><path d="M0 13C-1.65507e-15 5.8203 5.8203-1.65507e-15 13-3.31015e-15 20.1797-6.62029e-15 26 5.8203 26 13 26 20.1797 20.1797 26 13 26 5.8203 26-8.27537e-15 20.1797 0 13Z" fill="#F2F2F2" fill-rule="evenodd" transform="matrix(-1 0 0 1 981 292)"/><rect x="0" y="0" width="58" height="12" fill="#F2F2F2" transform="matrix(-1 0 0 1 1025 299)"/><path d="M0 13.5C-1.71873e-15 6.04416 6.04416-1.71873e-15 13.5-3.43746e-15 20.9558-6.87492e-15 27 6.04416 27 13.5 27 20.9558 20.9558 27 13.5 27 6.04416 27-8.59365e-15 20.9558 0 13.5Z" fill="#F2F2F2" fill-rule="evenodd" transform="matrix(-1 0 0 1 959 343)"/><rect x="0" y="0" width="70" height="11" fill="#F2F2F2" transform="matrix(-1 0 0 1 1025 351)"/><path d="M0 13C-1.65507e-15 5.8203 5.8203-1.65507e-15 13-3.31015e-15 20.1797-6.62029e-15 26 5.8203 26 13 26 20.1797 20.1797 26 13 26 5.8203 26-8.27537e-15 20.1797 0 13Z" fill="#F2F2F2" fill-rule="evenodd" transform="matrix(-1 0 0 1 981 395)"/><rect x="0" y="0" width="58" height="12" fill="#F2F2F2" transform="matrix(-1 0 0 1 1025 402)"/><rect x="1022" y="141" width="18" height="432" fill="#F2F2F2"/></g></svg>