<svg width="164" height="164" xmlns="http://www.w3.org/2000/svg" xmlns:xlink="http://www.w3.org/1999/xlink" overflow="hidden"><g transform="translate(-369 -501)"><g><g><g><g><path d="M371.5 530C371.5 515.36 383.36 503.5 398 503.5L504 503.5C518.64 503.5 530.5 515.36 530.5 530L530.5 636C530.5 650.64 518.64 662.5 504 662.5L398 662.5C383.36 662.5 371.5 650.64 371.5 636Z" stroke="#50A6EA" stroke-width="3" stroke-miterlimit="8" fill="none" fill-rule="evenodd"/></g></g></g></g><g><g><g><path d="M408.398 540.398 408.398 556.137 492.209 556.137 492.209 540.398 408.398 540.398ZM403.283 535.283 497.718 535.283 497.718 561.646 403.282 561.646 403.282 535.282ZM408.398 571.876 408.398 624.209 429.252 624.209 429.252 571.876 408.398 571.876ZM403.283 566.761 434.761 566.761 434.761 629.718 403.282 629.718 403.282 566.761ZM445.385 624.603 492.602 624.603 492.602 571.876 445.385 571.876 445.385 624.602ZM439.876 566.761 497.718 566.761 497.718 629.718 439.876 629.718 439.876 566.761Z" fill="#50A6EA"/></g></g></g></g></svg>