<svg width="164" height="164" xmlns="http://www.w3.org/2000/svg" xmlns:xlink="http://www.w3.org/1999/xlink" overflow="hidden"><defs><clipPath id="clip0"><rect x="190" y="227" width="126" height="126"/></clipPath><clipPath id="clip1"><rect x="190" y="227" width="126" height="126"/></clipPath><clipPath id="clip2"><rect x="190" y="227" width="126" height="126"/></clipPath></defs><g transform="translate(-171 -208)"><g><g><g><g><path d="M173.5 237C173.5 222.36 185.36 210.5 200 210.5L306 210.5C320.64 210.5 332.5 222.36 332.5 237L332.5 343C332.5 357.64 320.64 369.5 306 369.5L200 369.5C185.36 369.5 173.5 357.64 173.5 343Z" stroke="#50A6EA" stroke-width="3" stroke-miterlimit="8" fill="none" fill-rule="evenodd"/></g></g></g></g><g clip-path="url(#clip0)"><g clip-path="url(#clip1)"><g clip-path="url(#clip2)"><path d="M299.955 305.75C293.224 305.873 287.515 310.229 285.386 316.258 285.116 317.046 284.365 317.562 283.541 317.562L215.742 317.562C209.245 317.562 203.843 312.37 203.782 305.873 203.72 299.302 209.036 293.938 215.594 293.938L286.469 293.938C291.699 293.938 296.633 291.883 300.373 288.154 304.102 284.426 306.157 279.492 306.157 274.25 306.157 269.008 304.102 264.086 300.373 260.346 296.645 256.617 291.699 254.562 286.469 254.562L222.46 254.562C221.636 254.562 220.885 254.046 220.614 253.258 218.486 247.217 212.789 242.873 206.046 242.75 197.371 242.59 190.062 249.714 190 258.389 189.939 267.138 197.014 274.25 205.75 274.25 212.604 274.25 218.437 269.87 220.602 263.754 220.885 262.967 221.623 262.438 222.46 262.438L286.321 262.438C292.818 262.438 298.22 267.63 298.282 274.127 298.343 280.698 293.028 286.062 286.469 286.062L215.594 286.062C210.365 286.062 205.43 288.117 201.69 291.846 197.962 295.574 195.907 300.521 195.907 305.75 195.907 310.979 197.962 315.914 201.69 319.654 205.418 323.383 210.365 325.438 215.594 325.438L283.541 325.438C284.377 325.438 285.116 325.967 285.399 326.754 287.564 332.87 293.397 337.25 300.25 337.25 308.987 337.25 316.062 330.138 316 321.389 315.938 312.714 308.63 305.59 299.955 305.75ZM205.75 266.375C201.407 266.375 197.875 262.844 197.875 258.5 197.875 254.156 201.407 250.625 205.75 250.625 210.094 250.625 213.625 254.156 213.625 258.5 213.625 262.844 210.094 266.375 205.75 266.375ZM300.25 329.375C295.907 329.375 292.375 325.844 292.375 321.5 292.375 317.156 295.907 313.625 300.25 313.625 304.594 313.625 308.125 317.156 308.125 321.5 308.125 325.844 304.594 329.375 300.25 329.375Z" fill="#50A6EA"/></g></g></g></g></svg>